<svg xmlns="http://www.w3.org/2000/svg" width="144" height="144" viewBox="0 0 144 144" shape-rendering="crispEdges"><rect x="108" y="24" width="12" height="12" fill="#f4fff0"/><rect x="108" y="36" width="12" height="12" fill="#f4fff0"/><rect x="84" y="48" width="12" height="12" fill="#f4fff0"/><rect x="108" y="48" width="12" height="12" fill="#f4fff0"/><rect x="84" y="60" width="12" height="12" fill="#f4fff0"/><rect x="108" y="60" width="12" height="12" fill="#f4fff0"/><rect x="60" y="72" width="12" height="12" fill="#f4fff0"/><rect x="84" y="72" width="12" height="12" fill="#f4fff0"/><rect x="108" y="72" width="12" height="12" fill="#f4fff0"/><rect x="60" y="84" width="12" height="12" fill="#f4fff0"/><rect x="84" y="84" width="12" height="12" fill="#f4fff0"/><rect x="108" y="84" width="12" height="12" fill="#f4fff0"/><rect x="36" y="96" width="12" height="12" fill="#f4fff0"/><rect x="60" y="96" width="12" height="12" fill="#f4fff0"/><rect x="84" y="96" width="12" height="12" fill="#f4fff0"/><rect x="108" y="96" width="12" height="12" fill="#f4fff0"/><rect x="36" y="108" width="12" height="12" fill="#f4fff0"/><rect x="60" y="108" width="12" height="12" fill="#f4fff0"/><rect x="84" y="108" width="12" height="12" fill="#f4fff0"/><rect x="108" y="108" width="12" height="12" fill="#f4fff0"/><rect x="12" y="120" width="12" height="12" fill="#f4fff0"/><rect x="36" y="120" width="12" height="12" fill="#f4fff0"/><rect x="60" y="120" width="12" height="12" fill="#f4fff0"/><rect x="84" y="120" width="12" height="12" fill="#f4fff0"/><rect x="108" y="120" width="12" height="12" fill="#f4fff0"/></svg>
