<svg xmlns="http://www.w3.org/2000/svg" width="144" height="144" viewBox="0 0 144 144" shape-rendering="crispEdges"><rect x="0" y="0" width="132" height="12" fill="#d0d0d0"/><rect x="132" y="0" width="12" height="12" fill="#8b8b8b"/><rect x="0" y="12" width="12" height="12" fill="#d0d0d0"/><rect x="12" y="12" width="12" height="12" fill="#8b8b8b"/><rect x="24" y="12" width="12" height="12" fill="#969696"/><rect x="36" y="12" width="12" height="12" fill="#7f7f7f"/><rect x="48" y="12" width="12" height="12" fill="#8b8b8b"/><rect x="60" y="12" width="12" height="12" fill="#969696"/><rect x="72" y="12" width="12" height="12" fill="#7f7f7f"/><rect x="84" y="12" width="12" height="12" fill="#8b8b8b"/><rect x="96" y="12" width="12" height="12" fill="#969696"/><rect x="108" y="12" width="12" height="12" fill="#7f7f7f"/><rect x="120" y="12" width="12" height="12" fill="#8b8b8b"/><rect x="132" y="12" width="12" height="12" fill="#3c3c3c"/><rect x="0" y="24" width="12" height="12" fill="#d0d0d0"/><rect x="12" y="24" width="12" height="12" fill="#969696"/><rect x="24" y="24" width="96" height="12" fill="#2f1f0f"/><rect x="120" y="24" width="12" height="12" fill="#969696"/><rect x="132" y="24" width="12" height="12" fill="#3c3c3c"/><rect x="0" y="36" width="12" height="12" fill="#d0d0d0"/><rect x="12" y="36" width="12" height="12" fill="#7f7f7f"/><rect x="24" y="36" width="96" height="12" fill="#2f1f0f"/><rect x="120" y="36" width="12" height="12" fill="#7f7f7f"/><rect x="132" y="36" width="12" height="12" fill="#3c3c3c"/><rect x="0" y="48" width="12" height="12" fill="#d0d0d0"/><rect x="12" y="48" width="12" height="12" fill="#8b8b8b"/><rect x="24" y="48" width="12" height="12" fill="#2f1f0f"/><rect x="36" y="48" width="72" height="12" fill="#b88a6a"/><rect x="108" y="48" width="12" height="12" fill="#2f1f0f"/><rect x="120" y="48" width="12" height="12" fill="#8b8b8b"/><rect x="132" y="48" width="12" height="12" fill="#3c3c3c"/><rect x="0" y="60" width="12" height="12" fill="#d0d0d0"/><rect x="12" y="60" width="12" height="12" fill="#969696"/><rect x="24" y="60" width="96" height="12" fill="#b88a6a"/><rect x="120" y="60" width="12" height="12" fill="#969696"/><rect x="132" y="60" width="12" height="12" fill="#3c3c3c"/><rect x="0" y="72" width="12" height="12" fill="#d0d0d0"/><rect x="12" y="72" width="12" height="12" fill="#7f7f7f"/><rect x="24" y="72" width="12" height="12" fill="#b88a6a"/><rect x="36" y="72" width="12" height="12" fill="#ffffff"/><rect x="48" y="72" width="12" height="12" fill="#4a3fb5"/><rect x="60" y="72" width="24" height="12" fill="#b88a6a"/><rect x="84" y="72" width="12" height="12" fill="#4a3fb5"/><rect x="96" y="72" width="12" height="12" fill="#ffffff"/><rect x="108" y="72" width="12" height="12" fill="#b88a6a"/><rect x="120" y="72" width="12" height="12" fill="#7f7f7f"/><rect x="132" y="72" width="12" height="12" fill="#3c3c3c"/><rect x="0" y="84" width="12" height="12" fill="#d0d0d0"/><rect x="12" y="84" width="12" height="12" fill="#8b8b8b"/><rect x="24" y="84" width="36" height="12" fill="#b88a6a"/><rect x="60" y="84" width="24" height="12" fill="#8a5a44"/><rect x="84" y="84" width="36" height="12" fill="#b88a6a"/><rect x="120" y="84" width="12" height="12" fill="#8b8b8b"/><rect x="132" y="84" width="12" height="12" fill="#3c3c3c"/><rect x="0" y="96" width="12" height="12" fill="#d0d0d0"/><rect x="12" y="96" width="12" height="12" fill="#969696"/><rect x="24" y="96" width="24" height="12" fill="#b88a6a"/><rect x="48" y="96" width="48" height="12" fill="#5a3a22"/><rect x="96" y="96" width="24" height="12" fill="#b88a6a"/><rect x="120" y="96" width="12" height="12" fill="#969696"/><rect x="132" y="96" width="12" height="12" fill="#3c3c3c"/><rect x="0" y="108" width="12" height="12" fill="#d0d0d0"/><rect x="12" y="108" width="12" height="12" fill="#7f7f7f"/><rect x="24" y="108" width="24" height="12" fill="#b88a6a"/><rect x="48" y="108" width="12" height="12" fill="#5a3a22"/><rect x="60" y="108" width="24" height="12" fill="#b88a6a"/><rect x="84" y="108" width="12" height="12" fill="#5a3a22"/><rect x="96" y="108" width="24" height="12" fill="#b88a6a"/><rect x="120" y="108" width="12" height="12" fill="#7f7f7f"/><rect x="132" y="108" width="12" height="12" fill="#3c3c3c"/><rect x="0" y="120" width="12" height="12" fill="#d0d0d0"/><rect x="12" y="120" width="12" height="12" fill="#8b8b8b"/><rect x="24" y="120" width="12" height="12" fill="#969696"/><rect x="36" y="120" width="12" height="12" fill="#7f7f7f"/><rect x="48" y="120" width="12" height="12" fill="#8b8b8b"/><rect x="60" y="120" width="12" height="12" fill="#969696"/><rect x="72" y="120" width="12" height="12" fill="#7f7f7f"/><rect x="84" y="120" width="12" height="12" fill="#8b8b8b"/><rect x="96" y="120" width="12" height="12" fill="#969696"/><rect x="108" y="120" width="12" height="12" fill="#7f7f7f"/><rect x="120" y="120" width="12" height="12" fill="#8b8b8b"/><rect x="132" y="120" width="12" height="12" fill="#3c3c3c"/><rect x="0" y="132" width="12" height="12" fill="#8b8b8b"/><rect x="12" y="132" width="132" height="12" fill="#3c3c3c"/></svg>
