<svg xmlns="http://www.w3.org/2000/svg" width="144" height="144" viewBox="0 0 144 144" shape-rendering="crispEdges"><rect x="24" y="24" width="96" height="12" fill="#3f2710"/><rect x="24" y="36" width="12" height="12" fill="#3f2710"/><rect x="36" y="36" width="12" height="12" fill="#c8964a"/><rect x="48" y="36" width="12" height="12" fill="#a8763a"/><rect x="60" y="36" width="24" height="12" fill="#c8964a"/><rect x="84" y="36" width="12" height="12" fill="#a8763a"/><rect x="96" y="36" width="12" height="12" fill="#c8964a"/><rect x="108" y="36" width="12" height="12" fill="#3f2710"/><rect x="24" y="48" width="12" height="12" fill="#3f2710"/><rect x="36" y="48" width="12" height="12" fill="#a8763a"/><rect x="48" y="48" width="24" height="12" fill="#c8964a"/><rect x="72" y="48" width="12" height="12" fill="#a8763a"/><rect x="84" y="48" width="24" height="12" fill="#c8964a"/><rect x="108" y="48" width="12" height="12" fill="#3f2710"/><rect x="24" y="60" width="96" height="12" fill="#3f2710"/><rect x="24" y="72" width="12" height="12" fill="#3f2710"/><rect x="36" y="72" width="12" height="12" fill="#8a5a2a"/><rect x="48" y="72" width="12" height="12" fill="#d8d8d8"/><rect x="60" y="72" width="24" height="12" fill="#8a5a2a"/><rect x="84" y="72" width="12" height="12" fill="#5a3a1a"/><rect x="96" y="72" width="12" height="12" fill="#8a5a2a"/><rect x="108" y="72" width="12" height="12" fill="#3f2710"/><rect x="24" y="84" width="12" height="12" fill="#3f2710"/><rect x="36" y="84" width="12" height="12" fill="#8a5a2a"/><rect x="48" y="84" width="12" height="12" fill="#d8d8d8"/><rect x="60" y="84" width="24" height="12" fill="#8a5a2a"/><rect x="84" y="84" width="12" height="12" fill="#5a3a1a"/><rect x="96" y="84" width="12" height="12" fill="#8a5a2a"/><rect x="108" y="84" width="12" height="12" fill="#3f2710"/><rect x="24" y="96" width="12" height="12" fill="#3f2710"/><rect x="36" y="96" width="72" height="12" fill="#8a5a2a"/><rect x="108" y="96" width="12" height="12" fill="#3f2710"/><rect x="24" y="108" width="96" height="12" fill="#3f2710"/></svg>
