<svg xmlns="http://www.w3.org/2000/svg" width="144" height="144" viewBox="0 0 144 144" shape-rendering="crispEdges"><rect x="24" y="24" width="96" height="12" fill="#4a2f1f"/><rect x="24" y="36" width="12" height="12" fill="#4a2f1f"/><rect x="36" y="36" width="12" height="12" fill="#d98a4b"/><rect x="48" y="36" width="12" height="12" fill="#f3c692"/><rect x="60" y="36" width="48" height="12" fill="#d98a4b"/><rect x="108" y="36" width="12" height="12" fill="#4a2f1f"/><rect x="24" y="48" width="12" height="12" fill="#4a2f1f"/><rect x="36" y="48" width="12" height="12" fill="#d98a4b"/><rect x="48" y="48" width="48" height="12" fill="#1d1410"/><rect x="96" y="48" width="12" height="12" fill="#b86a2e"/><rect x="108" y="48" width="12" height="12" fill="#4a2f1f"/><rect x="24" y="60" width="12" height="12" fill="#4a2f1f"/><rect x="36" y="60" width="12" height="12" fill="#d98a4b"/><rect x="48" y="60" width="12" height="12" fill="#1d1410"/><rect x="60" y="60" width="24" height="12" fill="#f3c692"/><rect x="84" y="60" width="12" height="12" fill="#1d1410"/><rect x="96" y="60" width="12" height="12" fill="#b86a2e"/><rect x="108" y="60" width="12" height="12" fill="#4a2f1f"/><rect x="24" y="72" width="12" height="12" fill="#4a2f1f"/><rect x="36" y="72" width="12" height="12" fill="#d98a4b"/><rect x="48" y="72" width="12" height="12" fill="#1d1410"/><rect x="60" y="72" width="24" height="12" fill="#f3c692"/><rect x="84" y="72" width="12" height="12" fill="#1d1410"/><rect x="96" y="72" width="12" height="12" fill="#b86a2e"/><rect x="108" y="72" width="12" height="12" fill="#4a2f1f"/><rect x="24" y="84" width="12" height="12" fill="#4a2f1f"/><rect x="36" y="84" width="12" height="12" fill="#d98a4b"/><rect x="48" y="84" width="48" height="12" fill="#1d1410"/><rect x="96" y="84" width="12" height="12" fill="#b86a2e"/><rect x="108" y="84" width="12" height="12" fill="#4a2f1f"/><rect x="24" y="96" width="12" height="12" fill="#4a2f1f"/><rect x="36" y="96" width="72" height="12" fill="#b86a2e"/><rect x="108" y="96" width="12" height="12" fill="#4a2f1f"/><rect x="24" y="108" width="96" height="12" fill="#4a2f1f"/></svg>
